<mxfile host="app.diagrams.net" modified="2024-05-12T07:32:59.314Z" agent="Mozilla/5.0 (X11; Ubuntu; Linux x86_64; rv:125.0) Gecko/20100101 Firefox/125.0" etag="Q4hdg4FRuRRtOXh3iQbn" version="24.4.0" type="github">
  <diagram name="Page-1" id="Osahv42a5GhKxDbql-t-">
    <mxGraphModel dx="3374" dy="907" grid="1" gridSize="10" guides="1" tooltips="1" connect="1" arrows="1" fold="1" page="1" pageScale="1" pageWidth="850" pageHeight="1100" math="0" shadow="0">
      <root>
        <mxCell id="0" />
        <mxCell id="1" parent="0" />
        <mxCell id="R9b-usGFViyWbaLfwaHX-13" value="" style="rounded=0;whiteSpace=wrap;html=1;strokeColor=#FF3333;dashed=1;fillColor=none;strokeWidth=2;" parent="1" vertex="1">
          <mxGeometry x="-862" y="50" width="552" height="550" as="geometry" />
        </mxCell>
        <mxCell id="3b6PhmB1AsA0sEKJcov4-1" value="&lt;b&gt;&lt;font color=&quot;#ff3333&quot;&gt;INST 1&lt;/font&gt;&lt;/b&gt;" style="sketch=0;pointerEvents=1;shadow=0;dashed=0;html=1;strokeColor=none;labelPosition=center;verticalLabelPosition=bottom;verticalAlign=top;align=center;fillColor=#515151;shape=mxgraph.mscae.system_center.primary_site" parent="1" vertex="1">
          <mxGeometry x="-1213" y="70" width="38" height="50" as="geometry" />
        </mxCell>
        <mxCell id="3b6PhmB1AsA0sEKJcov4-2" value="&lt;b&gt;&lt;font color=&quot;#ff3333&quot;&gt;INST 2&lt;/font&gt;&lt;/b&gt;" style="sketch=0;pointerEvents=1;shadow=0;dashed=0;html=1;strokeColor=none;labelPosition=center;verticalLabelPosition=bottom;verticalAlign=top;align=center;fillColor=#515151;shape=mxgraph.mscae.system_center.primary_site" parent="1" vertex="1">
          <mxGeometry x="-1213" y="250" width="38" height="50" as="geometry" />
        </mxCell>
        <mxCell id="3b6PhmB1AsA0sEKJcov4-10" style="edgeStyle=orthogonalEdgeStyle;rounded=0;orthogonalLoop=1;jettySize=auto;html=1;entryX=0.5;entryY=0;entryDx=0;entryDy=0;entryPerimeter=0;strokeColor=none;dashed=1;strokeWidth=4;" parent="1" source="3b6PhmB1AsA0sEKJcov4-3" target="3b6PhmB1AsA0sEKJcov4-6" edge="1">
          <mxGeometry relative="1" as="geometry" />
        </mxCell>
        <mxCell id="3b6PhmB1AsA0sEKJcov4-3" value="&lt;b&gt;&lt;font color=&quot;#ff3333&quot;&gt;INST 3&lt;/font&gt;&lt;/b&gt;" style="sketch=0;pointerEvents=1;shadow=0;dashed=0;html=1;strokeColor=none;labelPosition=center;verticalLabelPosition=bottom;verticalAlign=top;align=center;fillColor=#515151;shape=mxgraph.mscae.system_center.primary_site" parent="1" vertex="1">
          <mxGeometry x="-1213" y="380" width="38" height="50" as="geometry" />
        </mxCell>
        <mxCell id="3b6PhmB1AsA0sEKJcov4-6" value="&lt;b&gt;&lt;font color=&quot;#ff3333&quot;&gt;INST 16&lt;/font&gt;&lt;/b&gt;" style="sketch=0;pointerEvents=1;shadow=0;dashed=0;html=1;strokeColor=none;labelPosition=center;verticalLabelPosition=bottom;verticalAlign=top;align=center;fillColor=#515151;shape=mxgraph.mscae.system_center.primary_site" parent="1" vertex="1">
          <mxGeometry x="-1213" y="530" width="38" height="50" as="geometry" />
        </mxCell>
        <mxCell id="3b6PhmB1AsA0sEKJcov4-12" value="" style="endArrow=none;html=1;rounded=0;exitX=0.63;exitY=0.3;exitDx=0;exitDy=0;exitPerimeter=0;dashed=1;strokeColor=#FF3333;strokeWidth=2;" parent="1" source="3b6PhmB1AsA0sEKJcov4-6" edge="1">
          <mxGeometry width="50" height="50" relative="1" as="geometry">
            <mxPoint x="-773" y="400" as="sourcePoint" />
            <mxPoint x="-1189" y="450" as="targetPoint" />
          </mxGeometry>
        </mxCell>
        <mxCell id="3b6PhmB1AsA0sEKJcov4-13" value="&lt;font color=&quot;#ff3333&quot;&gt;&lt;b&gt;&lt;font style=&quot;font-size: 16px;&quot;&gt;APIs&lt;/font&gt;&lt;/b&gt;&lt;/font&gt;" style="sketch=0;points=[[0,0,0],[0.25,0,0],[0.5,0,0],[0.75,0,0],[1,0,0],[0,1,0],[0.25,1,0],[0.5,1,0],[0.75,1,0],[1,1,0],[0,0.25,0],[0,0.5,0],[0,0.75,0],[1,0.25,0],[1,0.5,0],[1,0.75,0]];outlineConnect=0;fontColor=#232F3E;gradientColor=#945DF2;gradientDirection=north;fillColor=#5A30B5;strokeColor=#ffffff;dashed=0;verticalLabelPosition=bottom;verticalAlign=top;align=center;html=1;fontSize=12;fontStyle=0;aspect=fixed;shape=mxgraph.aws4.resourceIcon;resIcon=mxgraph.aws4.api_gateway;" parent="1" vertex="1">
          <mxGeometry x="-993" y="229" width="85" height="85" as="geometry" />
        </mxCell>
        <mxCell id="3b6PhmB1AsA0sEKJcov4-15" value="&lt;div style=&quot;font-size: 13px;&quot;&gt;&lt;font style=&quot;font-size: 13px;&quot;&gt;&lt;b&gt;&lt;font style=&quot;font-size: 13px;&quot; color=&quot;#ff3333&quot;&gt;MNRT&lt;/font&gt;&lt;/b&gt;&lt;/font&gt;&lt;/div&gt;&lt;div style=&quot;font-size: 13px;&quot;&gt;&lt;font style=&quot;font-size: 13px;&quot; color=&quot;#ff3333&quot;&gt;&lt;b&gt;DATAWARE HOUSE&lt;/b&gt;&lt;br&gt;&lt;/font&gt;&lt;/div&gt;" style="shape=datastore;whiteSpace=wrap;html=1;strokeWidth=2;strokeColor=#6666FF;" parent="1" vertex="1">
          <mxGeometry x="-705" y="169" width="130" height="130" as="geometry" />
        </mxCell>
        <mxCell id="3b6PhmB1AsA0sEKJcov4-16" value="&lt;div&gt;&lt;font style=&quot;font-size: 14px;&quot; color=&quot;#ff3333&quot;&gt;&lt;b&gt;UHIFADHI &lt;br&gt;&lt;/b&gt;&lt;/font&gt;&lt;/div&gt;&lt;div&gt;&lt;font style=&quot;font-size: 14px;&quot; color=&quot;#00cc66&quot;&gt;&lt;b&gt;&amp;nbsp; &amp;nbsp; &amp;nbsp; &amp;nbsp; &amp;nbsp; &amp;nbsp; &amp;nbsp; &amp;nbsp; &amp;nbsp; &amp;nbsp; &amp;nbsp; &amp;nbsp; &amp;nbsp; &amp;nbsp; &amp;nbsp; &amp;nbsp; &amp;nbsp; &amp;nbsp; &amp;nbsp; &amp;nbsp; &amp;nbsp; &amp;nbsp; &amp;nbsp; &amp;nbsp; &amp;nbsp; &amp;nbsp; &amp;nbsp; &amp;nbsp; &amp;nbsp; &amp;nbsp; &amp;nbsp; &amp;nbsp; &amp;nbsp; &amp;nbsp; &amp;nbsp; &amp;nbsp;&lt;/b&gt;&lt;/font&gt;&lt;font style=&quot;font-size: 14px;&quot; color=&quot;#ff0080&quot;&gt;&lt;b&gt;-Conservation Budget and Resources Module&lt;/b&gt;&lt;/font&gt;&lt;/div&gt;&lt;div&gt;&lt;font style=&quot;font-size: 14px;&quot; color=&quot;#ff0080&quot;&gt;&lt;b&gt;&amp;nbsp; &amp;nbsp; &amp;nbsp; &amp;nbsp; &amp;nbsp; &amp;nbsp; &amp;nbsp; &amp;nbsp; &amp;nbsp; &amp;nbsp; &amp;nbsp; &amp;nbsp; &amp;nbsp; &amp;nbsp; &amp;nbsp; &amp;nbsp; &amp;nbsp; &amp;nbsp; &amp;nbsp; &amp;nbsp; &amp;nbsp; &amp;nbsp; &amp;nbsp; &amp;nbsp; &amp;nbsp; &amp;nbsp;-Biodiversity Management Module&lt;/b&gt;&lt;/font&gt;&lt;/div&gt;&lt;div&gt;&lt;font style=&quot;font-size: 14px;&quot; color=&quot;#ff0080&quot;&gt;&lt;b&gt;&amp;nbsp; &amp;nbsp; &amp;nbsp; &amp;nbsp; &amp;nbsp; &amp;nbsp; &amp;nbsp; &amp;nbsp; &amp;nbsp; &amp;nbsp; &amp;nbsp; &amp;nbsp; &amp;nbsp; &amp;nbsp; &amp;nbsp; &amp;nbsp; &amp;nbsp; &amp;nbsp; &amp;nbsp; &amp;nbsp; &amp;nbsp; &amp;nbsp; &amp;nbsp; &amp;nbsp; &amp;nbsp; &amp;nbsp; &amp;nbsp; &amp;nbsp; &amp;nbsp;-Natural Resources Utilization Module&lt;/b&gt;&lt;/font&gt;&lt;/div&gt;&lt;div&gt;&lt;font style=&quot;font-size: 14px;&quot; color=&quot;#ff0080&quot;&gt;&lt;b&gt;&lt;br&gt;&lt;/b&gt;&lt;/font&gt;&lt;/div&gt;&lt;div&gt;&lt;font color=&quot;#6666ff&quot;&gt;&amp;nbsp; &amp;nbsp; &amp;nbsp; &amp;nbsp; &amp;nbsp; &amp;nbsp; &amp;nbsp; &amp;nbsp; &amp;nbsp; &amp;nbsp; &amp;nbsp; &amp;nbsp; &amp;nbsp; &amp;nbsp; &amp;nbsp; &amp;nbsp; &amp;nbsp; &amp;nbsp; &amp;nbsp; &amp;nbsp; &amp;nbsp; &amp;nbsp; &amp;nbsp; &amp;nbsp; &amp;nbsp; &amp;nbsp; &amp;nbsp; &amp;nbsp; &amp;nbsp; &amp;nbsp; &amp;nbsp; &amp;nbsp; &amp;nbsp; &amp;nbsp; &amp;nbsp; &amp;nbsp; &amp;nbsp; &amp;nbsp; &amp;nbsp; &amp;nbsp; &amp;nbsp; &amp;nbsp; &amp;nbsp; &amp;nbsp; &amp;nbsp; &amp;nbsp; &amp;nbsp; &amp;nbsp; &amp;nbsp; &amp;nbsp;&lt;font style=&quot;font-size: 14px;&quot;&gt;&lt;b&gt;-Wildlife and Forest Crime Information System Module&lt;/b&gt;&lt;/font&gt;&lt;/font&gt;&lt;/div&gt;&lt;div&gt;&lt;font color=&quot;#ff0080&quot;&gt;&amp;nbsp;&amp;nbsp;&amp;nbsp;&amp;nbsp;&amp;nbsp;&amp;nbsp;&amp;nbsp;&amp;nbsp;&amp;nbsp;&amp;nbsp;&amp;nbsp;&amp;nbsp;&amp;nbsp;&amp;nbsp;&amp;nbsp;&amp;nbsp;&amp;nbsp;&amp;nbsp;&amp;nbsp;&amp;nbsp;&amp;nbsp;&amp;nbsp;&amp;nbsp;&amp;nbsp;&amp;nbsp;&amp;nbsp;&amp;nbsp;&amp;nbsp;&amp;nbsp;&amp;nbsp;&amp;nbsp;&amp;nbsp;&amp;nbsp;&amp;nbsp;&amp;nbsp;&amp;nbsp;&amp;nbsp;&amp;nbsp;&amp;nbsp;&amp;nbsp;&amp;nbsp;&amp;nbsp;&amp;nbsp;&amp;nbsp;&amp;nbsp;&amp;nbsp;&amp;nbsp;&amp;nbsp;&amp;nbsp;&amp;nbsp;&amp;nbsp;&amp;nbsp;&amp;nbsp;&amp;nbsp;&amp;nbsp;&amp;nbsp;&amp;nbsp;&amp;nbsp;&amp;nbsp;&amp;nbsp;&amp;nbsp;&amp;nbsp;&amp;nbsp;&amp;nbsp;&amp;nbsp;&amp;nbsp;&amp;nbsp;&amp;nbsp;&amp;nbsp;&amp;nbsp;&amp;nbsp;&amp;nbsp;&amp;nbsp;&amp;nbsp;&amp;nbsp;&amp;nbsp;&amp;nbsp;&amp;nbsp;&amp;nbsp;&amp;nbsp;&amp;nbsp;&amp;nbsp;&amp;nbsp;&amp;nbsp;&amp;nbsp;&amp;nbsp;&amp;nbsp;&amp;nbsp;&amp;nbsp;&amp;nbsp;&amp;nbsp;&amp;nbsp;&amp;nbsp; &lt;font style=&quot;font-size: 14px;&quot;&gt;&lt;b&gt;&lt;br&gt;&lt;/b&gt;&lt;/font&gt;&lt;/font&gt;&lt;/div&gt;&lt;div&gt;&lt;font color=&quot;#ff0080&quot;&gt;&lt;font style=&quot;font-size: 14px;&quot;&gt;&lt;b&gt;&amp;nbsp; &amp;nbsp; &amp;nbsp; &amp;nbsp; &amp;nbsp; &amp;nbsp; &amp;nbsp; &amp;nbsp; &amp;nbsp; &amp;nbsp; &amp;nbsp; &amp;nbsp; &amp;nbsp; &amp;nbsp; &amp;nbsp; &amp;nbsp; &amp;nbsp; &amp;nbsp; &amp;nbsp; &amp;nbsp; &amp;nbsp; &amp;nbsp; &amp;nbsp; &amp;nbsp; &amp;nbsp; &amp;nbsp; &amp;nbsp; &amp;nbsp; &amp;nbsp; &amp;nbsp; &amp;nbsp; &amp;nbsp; &amp;nbsp; &amp;nbsp; &amp;nbsp; -Human Wildlife Conflict Management Module&lt;/b&gt;&lt;/font&gt;&lt;/font&gt;&lt;/div&gt;&lt;div&gt;&lt;font style=&quot;font-size: 14px;&quot; color=&quot;#ff0080&quot;&gt;&lt;b&gt;&amp;nbsp; &amp;nbsp; &amp;nbsp; &amp;nbsp; &amp;nbsp; &amp;nbsp; &amp;nbsp; &amp;nbsp; &amp;nbsp; &amp;nbsp; &amp;nbsp; &amp;nbsp; &amp;nbsp; &amp;nbsp; &amp;nbsp; &amp;nbsp; &amp;nbsp; &amp;nbsp; &amp;nbsp; &amp;nbsp; &amp;nbsp; &amp;nbsp; &amp;nbsp; &amp;nbsp; &amp;nbsp; -Beekeeping Management Module&lt;/b&gt;&lt;/font&gt;&lt;/div&gt;&lt;div&gt;&lt;font style=&quot;font-size: 14px;&quot; color=&quot;#ff0080&quot;&gt;&lt;b&gt;&amp;nbsp; &amp;nbsp; &amp;nbsp; &amp;nbsp; &amp;nbsp; &amp;nbsp; &amp;nbsp; &amp;nbsp; &amp;nbsp; &amp;nbsp; &amp;nbsp; &amp;nbsp; &amp;nbsp; &amp;nbsp; &amp;nbsp; -Infrastructure Module&lt;/b&gt;&lt;/font&gt;&lt;/div&gt;&lt;div&gt;&lt;font style=&quot;font-size: 14px;&quot; color=&quot;#ff0080&quot;&gt;&lt;b&gt;&amp;nbsp; &amp;nbsp; &amp;nbsp; &amp;nbsp; &amp;nbsp; &amp;nbsp; &amp;nbsp; &amp;nbsp; &amp;nbsp; &amp;nbsp; &amp;nbsp; &amp;nbsp; &amp;nbsp; &amp;nbsp; &amp;nbsp; &amp;nbsp; &amp;nbsp; &amp;nbsp; &amp;nbsp; &amp;nbsp; &amp;nbsp; &amp;nbsp; &amp;nbsp; &amp;nbsp; &amp;nbsp; &amp;nbsp; &amp;nbsp; &amp;nbsp; &amp;nbsp; &amp;nbsp; &amp;nbsp; &amp;nbsp; &amp;nbsp; -Antiqueties Heritage Conservation Module&lt;/b&gt;&lt;/font&gt;&lt;font style=&quot;font-size: 14px;&quot; color=&quot;#ff0080&quot;&gt;&lt;b&gt;&lt;br&gt;&lt;/b&gt;&lt;/font&gt;&lt;/div&gt;&lt;div&gt;&lt;font style=&quot;font-size: 14px;&quot; color=&quot;#ff3333&quot;&gt;&lt;b&gt;&lt;br&gt;&lt;/b&gt;&lt;/font&gt;&lt;/div&gt;" style="sketch=0;pointerEvents=1;shadow=0;dashed=0;html=1;strokeColor=none;labelPosition=center;verticalLabelPosition=bottom;verticalAlign=top;align=center;fillColor=#515151;shape=mxgraph.mscae.system_center.primary_site" parent="1" vertex="1">
          <mxGeometry x="-821" y="347" width="38" height="50" as="geometry" />
        </mxCell>
        <mxCell id="3b6PhmB1AsA0sEKJcov4-20" value="&lt;b&gt;&lt;font color=&quot;#ff3333&quot;&gt;BI DASHBOARD&lt;/font&gt;&lt;/b&gt;" style="verticalLabelPosition=bottom;html=1;verticalAlign=top;align=center;strokeColor=none;fillColor=#6666FF;shape=mxgraph.azure.computer;pointerEvents=1;" parent="1" vertex="1">
          <mxGeometry x="-237" y="200" width="140" height="147" as="geometry" />
        </mxCell>
        <mxCell id="3b6PhmB1AsA0sEKJcov4-21" value="&lt;div&gt;&lt;font style=&quot;font-size: 14px;&quot; color=&quot;#ff3333&quot;&gt;&lt;b&gt;TOURISM&lt;br&gt;&lt;/b&gt;&lt;/font&gt;&lt;/div&gt;&lt;div&gt;&lt;font style=&quot;font-size: 14px;&quot; color=&quot;#00cc66&quot;&gt;&lt;b&gt;&amp;nbsp;&amp;nbsp;&amp;nbsp;&amp;nbsp;&amp;nbsp;&amp;nbsp;&amp;nbsp;&amp;nbsp;&amp;nbsp;&amp;nbsp;&amp;nbsp;&amp;nbsp;&amp;nbsp;&amp;nbsp;&amp;nbsp;&amp;nbsp; -MNRT PORTAL&lt;/b&gt;&lt;/font&gt;&lt;/div&gt;&lt;div&gt;&lt;font style=&quot;font-size: 14px;&quot; color=&quot;#00cc66&quot;&gt;&lt;b&gt;&amp;nbsp;-AserT&lt;/b&gt;&lt;/font&gt;&lt;font style=&quot;font-size: 14px;&quot; color=&quot;#00cc66&quot;&gt;&lt;b&gt;&lt;br&gt;&lt;/b&gt;&lt;/font&gt;&lt;/div&gt;" style="sketch=0;pointerEvents=1;shadow=0;dashed=0;html=1;strokeColor=none;labelPosition=center;verticalLabelPosition=bottom;verticalAlign=top;align=center;fillColor=#515151;shape=mxgraph.mscae.system_center.primary_site" parent="1" vertex="1">
          <mxGeometry x="-816" y="87" width="38" height="50" as="geometry" />
        </mxCell>
        <mxCell id="3b6PhmB1AsA0sEKJcov4-22" value="" style="endArrow=classic;html=1;rounded=0;strokeWidth=2;strokeColor=#00CC66;exitX=0.632;exitY=0.46;exitDx=0;exitDy=0;exitPerimeter=0;entryX=0.5;entryY=1;entryDx=0;entryDy=0;" parent="1" source="3b6PhmB1AsA0sEKJcov4-16" target="3b6PhmB1AsA0sEKJcov4-15" edge="1">
          <mxGeometry width="50" height="50" relative="1" as="geometry">
            <mxPoint x="-727.992" y="388" as="sourcePoint" />
            <mxPoint x="-612" y="303" as="targetPoint" />
            <Array as="points">
              <mxPoint x="-639" y="372" />
            </Array>
          </mxGeometry>
        </mxCell>
        <mxCell id="R9b-usGFViyWbaLfwaHX-10" value="APIs" style="edgeLabel;html=1;align=center;verticalAlign=middle;resizable=0;points=[];" parent="3b6PhmB1AsA0sEKJcov4-22" vertex="1" connectable="0">
          <mxGeometry x="0.1342" relative="1" as="geometry">
            <mxPoint as="offset" />
          </mxGeometry>
        </mxCell>
        <mxCell id="3b6PhmB1AsA0sEKJcov4-28" value="" style="endArrow=classic;html=1;rounded=0;exitX=0.553;exitY=0.5;exitDx=0;exitDy=0;exitPerimeter=0;strokeWidth=2;strokeColor=#00CC66;entryX=0.5;entryY=0;entryDx=0;entryDy=0;" parent="1" source="3b6PhmB1AsA0sEKJcov4-21" target="3b6PhmB1AsA0sEKJcov4-15" edge="1">
          <mxGeometry width="50" height="50" relative="1" as="geometry">
            <mxPoint x="-783" y="111" as="sourcePoint" />
            <mxPoint x="-610" y="167" as="targetPoint" />
            <Array as="points">
              <mxPoint x="-639" y="111" />
            </Array>
          </mxGeometry>
        </mxCell>
        <mxCell id="R9b-usGFViyWbaLfwaHX-9" value="APIs" style="edgeLabel;html=1;align=center;verticalAlign=middle;resizable=0;points=[];" parent="3b6PhmB1AsA0sEKJcov4-28" vertex="1" connectable="0">
          <mxGeometry x="0.2522" y="-1" relative="1" as="geometry">
            <mxPoint as="offset" />
          </mxGeometry>
        </mxCell>
        <mxCell id="3b6PhmB1AsA0sEKJcov4-32" value="" style="endArrow=classic;html=1;rounded=0;strokeWidth=2;strokeColor=#00CC66;exitX=0.421;exitY=0.5;exitDx=0;exitDy=0;exitPerimeter=0;" parent="1" source="3b6PhmB1AsA0sEKJcov4-2" edge="1">
          <mxGeometry width="50" height="50" relative="1" as="geometry">
            <mxPoint x="-1191" y="274" as="sourcePoint" />
            <mxPoint x="-1101" y="274" as="targetPoint" />
          </mxGeometry>
        </mxCell>
        <mxCell id="3b6PhmB1AsA0sEKJcov4-33" value="" style="endArrow=classic;html=1;rounded=0;strokeWidth=6;strokeColor=#00CC66;exitX=1;exitY=0.5;exitDx=0;exitDy=0;exitPerimeter=0;entryX=-0.005;entryY=0.365;entryDx=0;entryDy=0;entryPerimeter=0;" parent="1" source="3b6PhmB1AsA0sEKJcov4-13" edge="1">
          <mxGeometry width="50" height="50" relative="1" as="geometry">
            <mxPoint x="-881" y="271" as="sourcePoint" />
            <mxPoint x="-864.7649999999999" y="270.75" as="targetPoint" />
          </mxGeometry>
        </mxCell>
        <mxCell id="3b6PhmB1AsA0sEKJcov4-34" value="" style="endArrow=classic;html=1;rounded=0;strokeWidth=6;strokeColor=#00CC66;exitX=1.004;exitY=0.373;exitDx=0;exitDy=0;exitPerimeter=0;" parent="1" target="3b6PhmB1AsA0sEKJcov4-20" edge="1">
          <mxGeometry width="50" height="50" relative="1" as="geometry">
            <mxPoint x="-306.788" y="275.15" as="sourcePoint" />
            <mxPoint x="-449" y="271.08" as="targetPoint" />
          </mxGeometry>
        </mxCell>
        <mxCell id="3b6PhmB1AsA0sEKJcov4-35" value="" style="shape=image;html=1;verticalAlign=top;verticalLabelPosition=bottom;labelBackgroundColor=#ffffff;imageAspect=0;aspect=fixed;image=https://cdn0.iconfinder.com/data/icons/business-startup-10/50/60-128.png" parent="1" vertex="1">
          <mxGeometry x="-210" y="220" width="78" height="78" as="geometry" />
        </mxCell>
        <mxCell id="R9b-usGFViyWbaLfwaHX-2" value="" style="strokeWidth=2;html=1;shape=mxgraph.flowchart.annotation_1;align=left;pointerEvents=1;flipH=1;strokeColor=#00CC66;" parent="1" vertex="1">
          <mxGeometry x="-1189" y="90" width="50" height="470" as="geometry" />
        </mxCell>
        <mxCell id="R9b-usGFViyWbaLfwaHX-3" value="" style="endArrow=classic;html=1;rounded=0;strokeWidth=6;strokeColor=#00CC66;exitX=0;exitY=0.394;exitDx=0;exitDy=0;exitPerimeter=0;" parent="1" target="3b6PhmB1AsA0sEKJcov4-13" edge="1">
          <mxGeometry width="50" height="50" relative="1" as="geometry">
            <mxPoint x="-1139" y="274.18000000000006" as="sourcePoint" />
            <mxPoint x="-966" y="272.5" as="targetPoint" />
          </mxGeometry>
        </mxCell>
        <mxCell id="R9b-usGFViyWbaLfwaHX-4" value="" style="endArrow=none;html=1;rounded=0;strokeColor=#00CC66;strokeWidth=2;entryX=0;entryY=0.66;entryDx=0;entryDy=0;entryPerimeter=0;" parent="1" target="R9b-usGFViyWbaLfwaHX-2" edge="1">
          <mxGeometry width="50" height="50" relative="1" as="geometry">
            <mxPoint x="-1192" y="400" as="sourcePoint" />
            <mxPoint x="-1139" y="347" as="targetPoint" />
          </mxGeometry>
        </mxCell>
        <mxCell id="R9b-usGFViyWbaLfwaHX-6" value="" style="ellipse;whiteSpace=wrap;html=1;fillColor=none;strokeWidth=2;strokeColor=#FF3333;" parent="1" vertex="1">
          <mxGeometry x="-850" y="470" width="430" height="50" as="geometry" />
        </mxCell>
        <mxCell id="R9b-usGFViyWbaLfwaHX-8" value="APIs" style="text;html=1;align=center;verticalAlign=middle;resizable=0;points=[];autosize=1;strokeColor=none;fillColor=none;" parent="1" vertex="1">
          <mxGeometry x="-305" y="245" width="50" height="30" as="geometry" />
        </mxCell>
      </root>
    </mxGraphModel>
  </diagram>
</mxfile>
